<?xml version="1.0" encoding="UTF-8" standalone="no"?>
<!-- Created with Inkscape (http://www.inkscape.org/) -->

<svg
   version="1.1"
   id="svg1"
   width="933.33331"
   height="933.33331"
   viewBox="0 0 933.33331 933.33331"
   sodipodi:docname="sleipner_sleipner_logo_symbol_white.eps"
   xmlns:inkscape="http://www.inkscape.org/namespaces/inkscape"
   xmlns:sodipodi="http://sodipodi.sourceforge.net/DTD/sodipodi-0.dtd"
   xmlns="http://www.w3.org/2000/svg"
   xmlns:svg="http://www.w3.org/2000/svg">
  <defs
     id="defs1" />
  <sodipodi:namedview
     id="namedview1"
     pagecolor="#ffffff"
     bordercolor="#000000"
     borderopacity="0.25"
     inkscape:showpageshadow="2"
     inkscape:pageopacity="0.0"
     inkscape:pagecheckerboard="0"
     inkscape:deskcolor="#d1d1d1">
    <inkscape:page
       x="0"
       y="0"
       inkscape:label="1"
       id="page1"
       width="933.33331"
       height="933.33331"
       margin="0"
       bleed="0" />
  </sodipodi:namedview>
  <g
     id="g1"
     inkscape:groupmode="layer"
     inkscape:label="1">
    <g
       id="group-R5">
      <path
         id="path2"
         d="m 5953.31,3358.86 c 0,-394.4 68.3,-746.61 202.76,-1047.41 -380.14,-131.36 -723.67,-348.54 -1021.12,-646 -278.87,-278.89 -479.64,-576.25 -597.25,-884.02 -361.68,175.929 -758.17,265.27 -1178.84,265.27 -394.37,0 -746.6,-68.309 -1047.42,-202.782 -131.35,380.152 -348.53,723.682 -645.98,1021.142 -278.89,278.87 -576.25,479.64 -884.026,597.24 175.921,361.68 265.266,758.17 265.266,1178.85 0,394.37 -68.309,746.6 -202.774,1047.41 380.164,131.36 723.684,348.54 1021.124,645.99 278.91,278.9 479.67,576.27 597.25,884.02 361.69,-175.92 758.17,-265.26 1178.85,-265.26 394.39,0 746.6,68.32 1047.4,202.78 131.37,-380.13 348.55,-723.67 645.99,-1021.14 278.92,-278.89 576.3,-479.65 884.05,-597.24 -175.93,-361.69 -265.28,-758.17 -265.28,-1178.85 z M 6985.96,4439.7 c -100.11,-6.29 -203.6,-2.94 -307.55,9.88 -143.02,17.65 -285.3,52.27 -423.24,102.66 32.34,64.74 66.4,127.07 101.56,185.28 81.75,135.76 182.5,261.27 299.49,373.06 3.59,3.44 3.41,8.84 1.97,13.6 -1.42,4.76 -6.95,8.56 -11.83,9.45 -274.37,50.03 -550.39,212.28 -820.4,482.29 -299.26,299.29 -468.07,634.53 -501.72,996.5 l -0.67,9.32 c -0.41,5.29 -3.98,9.8 -9.01,11.47 -4.99,1.62 -10.54,0.18 -14.07,-3.8 -66.36,-75.23 -141.89,-146.06 -224.49,-210.5 -113.6,-88.64 -238.8,-164.57 -371.92,-226.46 -22.87,68.58 -42.83,136.69 -59.13,202.61 -38.19,153.79 -55.69,313.8 -52.03,475.58 0.11,4.97 -3.84,8.65 -8.21,11.01 -4.36,2.36 -10.97,1.14 -15.05,-1.69 -229.39,-158.64 -539.29,-239.07 -921.13,-239.07 -423.22,0 -779.65,117.68 -1059.37,349.79 l -7.15,6.23 c -4.04,3.41 -9.74,4.11 -14.46,1.68 -4.72,-2.38 -7.58,-7.34 -7.24,-12.63 6.27,-100.14 2.94,-203.62 -9.89,-307.58 -17.64,-143.01 -52.26,-285.29 -102.66,-423.22 -64.78,32.38 -127.11,66.46 -185.27,101.55 -135.75,81.75 -261.27,182.52 -373.07,299.49 -3.44,3.6 -8.84,3.41 -13.59,1.98 -4.76,-1.41 -8.56,-6.94 -9.45,-11.82 C 1816.36,6372 1654.1,6095.98 1384.09,5825.97 1084.83,5526.7 749.57,5357.88 387.645,5324.23 l -9.489,-0.68 c -5.258,-0.47 -9.734,-4.02 -11.375,-9.05 -1.64,-5.02 -0.14,-10.53 3.821,-14.03 75.152,-66.27 145.976,-141.79 210.503,-224.47 88.649,-113.63 164.575,-238.81 226.458,-371.91 -68.59,-22.88 -136.692,-42.84 -202.614,-59.13 -153.801,-38.19 -313.746,-55.67 -475.578,-52.03 -4.621,0.36 -8.648,-3.83 -11.012,-8.21 -2.363,-4.37 -1.132,-10.97 1.692,-15.05 158.629,-229.38 239.062,-539.29 239.062,-921.14 0,-423.24 -117.691,-779.67 -349.78097,-1059.37 l -6.23437,-7.15 c -3.394535,-4.04 -4.06641,-9.74 -1.67969,-14.46 2.375,-4.73 7.41406,-7.41 12.62893,-7.24 100.0941,6.31 203.5941,2.94 307.5861,-9.89 143.008,-17.64 285.289,-52.27 423.222,-102.66 -32.351,-64.72 -66.441,-127.05 -101.562,-185.27 -81.746,-135.75 -182.512,-261.28 -299.48,-373.07 -3.602,-3.43 -3.418,-8.83 -1.989,-13.59 1.422,-4.77 6.949,-8.56 11.828,-9.45 274.356,-50.02 550.379,-212.29 820.388,-482.29 299.27,-299.28 468.09,-634.531 501.74,-996.449 l 0.68,-9.481 c 0.47,-5.262 4.02,-9.742 9.05,-11.379 1.35,-0.441 2.73,-0.66 4.11,-0.66 3.74,0 7.36,1.57 9.92,4.481 66.32,75.187 141.85,146 224.47,210.488 113.61,88.648 238.79,164.57 371.91,226.469 22.87,-68.559 42.82,-136.661 59.14,-202.61 38.19,-153.801 55.7,-313.808 52.02,-475.578 -0.11,-4.973 3.83,-8.652 8.21,-11.012 4.4,-2.371 10.96,-1.14 15.05,1.692 229.39,158.64 539.3,239.07 921.14,239.07 423.24,0 779.67,-117.691 1059.38,-349.79287 l 7.1,-6.20704 C 4420.42,1.05078 4423.44,0 4426.51,0 c 2.01,0 4.05,0.460938 5.94,1.39844 4.72,2.38281 7.59,7.36328 7.25,12.64066 -6.27,100.0699 -2.94,203.5629 9.89,307.5899 17.66,143.051 52.28,285.332 102.67,423.199 64.74,-32.359 127.06,-66.418 185.26,-101.539 135.76,-81.758 261.28,-182.527 373.06,-299.488 1.98,-2.11 4.67,-2.871 7.51,-2.871 1.99,0 4.05,0.379 6.02,0.941 4.72,1.391 8.57,6.938 9.52,11.777 50.04,274.383 212.3,550.391 482.28,820.382 299.29,299.28 634.54,468.09 996.47,501.75 l 9.43,0.66 c 5.26,0.45 9.76,4 11.41,9.02 1.65,5.03 0.15,10.56 -3.8,14.06 -75.21,66.34 -146.04,141.87 -210.49,224.49 -88.67,113.6 -164.6,238.78 -226.49,371.9 68.53,22.87 136.64,42.83 202.61,59.15 153.79,38.17 313.82,55.68 475.56,52.01 0.08,0 0.16,0 0.21,0 4.88,0 8.5,3.9 10.82,8.21 2.38,4.38 1.16,10.98 -1.68,15.06 -158.64,229.4 -239.07,539.31 -239.07,921.14 0,423.25 117.69,779.68 349.87,1059.43 l 6.17,7.11 c 3.38,4.06 4.03,9.74 1.65,14.45 -2.4,4.73 -7.41,7.57 -12.62,7.23"
         style="fill:#ffffff;fill-opacity:1;fill-rule:nonzero;stroke:none"
         transform="matrix(0.13333333,0,0,-0.13333333,0,933.33333)" />
    </g>
  </g>
</svg>
