<?xml version="1.0" encoding="UTF-8" standalone="no"?>
<!-- Created with Inkscape (http://www.inkscape.org/) -->

<svg
   version="1.1"
   id="svg1"
   width="1507.3066"
   height="543.53333"
   viewBox="0 0 1507.3066 543.53333"
   sodipodi:docname="sleipner_sleipner_logo_wordmark.eps"
   xmlns:inkscape="http://www.inkscape.org/namespaces/inkscape"
   xmlns:sodipodi="http://sodipodi.sourceforge.net/DTD/sodipodi-0.dtd"
   xmlns="http://www.w3.org/2000/svg"
   xmlns:svg="http://www.w3.org/2000/svg">
  <defs
     id="defs1" />
  <sodipodi:namedview
     id="namedview1"
     pagecolor="#ffffff"
     bordercolor="#000000"
     borderopacity="0.25"
     inkscape:showpageshadow="2"
     inkscape:pageopacity="0.0"
     inkscape:pagecheckerboard="0"
     inkscape:deskcolor="#d1d1d1">
    <inkscape:page
       x="0"
       y="0"
       inkscape:label="1"
       id="page1"
       width="1507.3066"
       height="543.53333"
       margin="0"
       bleed="0" />
  </sodipodi:namedview>
  <g
     id="g1"
     inkscape:groupmode="layer"
     inkscape:label="1">
    <g
       id="group-R5">
      <path
         id="path2"
         d="m 1067.16,1745.38 183.67,97.11 c 26.73,-63.33 63.33,-109.78 109.78,-139.33 46.44,-29.56 105.18,-44.34 176.27,-44.34 59.8,0 106.77,10.9 140.92,32.73 34.12,21.79 51.19,50.29 51.19,85.5 0,47.13 -17.6,82.33 -52.77,105.55 -35.21,23.22 -102.05,42.91 -200.56,59.11 -234.33,38 -351.5,138.28 -351.5,300.83 0,83.74 37.1,152.88 111.36,207.42 74.24,54.52 164.48,81.81 270.75,81.81 95.69,0 173.64,-18.85 233.81,-56.48 60.16,-37.65 107.48,-93.07 141.97,-166.25 l -172.05,-95 c -30.99,90.78 -98.17,136.17 -201.62,136.17 -50.66,0 -93.25,-10.92 -127.72,-32.72 -34.49,-21.83 -51.72,-48.21 -51.72,-79.17 0,-38.71 18.29,-67.03 54.89,-84.97 36.57,-17.94 104.84,-34.31 204.78,-49.08 124.55,-18.32 215.14,-53.15 271.8,-104.5 56.63,-51.38 84.97,-121.76 84.97,-211.11 0,-94.32 -39.95,-171.9 -119.8,-232.75 -79.88,-60.88 -178.92,-91.31 -297.14,-91.31 -115.42,0 -212.17,24.62 -290.28,73.89 -78.11,49.24 -135.11,118.22 -171,206.89"
         style="fill:#fafafa;fill-opacity:1;fill-rule:nonzero;stroke:none"
         transform="matrix(0.13333333,0,0,-0.13333333,0,543.53333)" />
      <path
         id="path3"
         d="M 2117.16,1485.71 V 2999.38 H 2344.1 V 1485.71 h -226.94"
         style="fill:#fafafa;fill-opacity:1;fill-rule:nonzero;stroke:none"
         transform="matrix(0.13333333,0,0,-0.13333333,0,543.53333)" />
      <path
         id="path4"
         d="m 2751.13,2112.71 h 507.72 l 2.11,19 c 0,62.62 -22.35,112.58 -67.03,149.89 -44.7,37.29 -102.23,55.94 -172.58,55.94 -71.1,0 -131.6,-20.42 -181.56,-61.22 -49.98,-40.82 -79.53,-95.37 -88.66,-163.61 z m 583.72,-237.5 194.22,-76 c -36.6,-108.38 -94.66,-191.24 -174.17,-248.58 -79.53,-57.37 -179.1,-86.03 -298.72,-86.03 -159.05,0 -287.48,49.08 -385.28,147.25 -97.82,98.17 -146.72,229.22 -146.72,393.19 0,149.89 46.26,275.13 138.81,375.78 92.52,100.62 212.69,150.95 360.47,150.95 135.8,0 246.81,-41.01 333.02,-122.98 86.19,-81.99 129.31,-191.58 129.31,-328.8 0,-35.2 -3.54,-74.6 -10.56,-118.22 h -724.1 c 0,-99.23 30.24,-174.88 90.77,-226.95 63.34,-50.66 135.46,-76 216.39,-76 73.18,0 133.53,18.48 181.03,55.42 47.5,36.94 79.32,90.59 95.53,160.97"
         style="fill:#fafafa;fill-opacity:1;fill-rule:nonzero;stroke:none"
         transform="matrix(0.13333333,0,0,-0.13333333,0,543.53333)" />
      <path
         id="path5"
         d="m 3689.14,2510.65 h 226.94 V 1485.71 h -226.94 z m -10.55,175.23 v 248.05 h 248.05 v -248.05 h -248.05"
         style="fill:#fafafa;fill-opacity:1;fill-rule:nonzero;stroke:none"
         transform="matrix(0.13333333,0,0,-0.13333333,0,543.53333)" />
      <path
         id="path6"
         d="m 4666.27,1665.16 c 83.73,0 154.11,30.24 211.11,90.78 57,60.5 85.5,138.96 85.5,235.38 0,96.4 -28.87,176.44 -86.56,240.14 -57.71,63.68 -127.72,95.53 -210.05,95.53 -78.12,0 -146.91,-31.85 -206.37,-95.53 -59.48,-63.7 -89.19,-143.74 -89.19,-240.14 0,-96.42 29.19,-174.88 87.61,-235.38 58.4,-60.54 127.72,-90.78 207.95,-90.78 z m -514.06,845.49 h 218.5 V 2329.1 c 34.47,60.51 84.6,109.41 150.42,146.72 65.78,37.29 133.87,55.95 204.25,55.95 137.9,0 249.79,-50.51 335.66,-151.48 85.84,-100.99 128.78,-230.63 128.78,-388.97 0,-156.93 -44.7,-283.94 -134.06,-381.05 -89.37,-97.11 -206.88,-145.67 -352.55,-145.67 -70.38,0 -134.42,13.91 -192.11,41.7 -57.71,27.79 -101.7,68.42 -131.94,121.91 v -571.05 h -226.95 v 1453.49"
         style="fill:#fafafa;fill-opacity:1;fill-rule:nonzero;stroke:none"
         transform="matrix(0.13333333,0,0,-0.13333333,0,543.53333)" />
      <path
         id="path7"
         d="m 5598.58,1485.71 h -226.94 v 1024.94 h 226.94 v -149.88 c 68.24,114 175.57,171 321.94,171 108.36,0 195.28,-33.78 260.73,-101.34 65.44,-67.55 98.16,-159.04 98.16,-274.44 v -670.28 h -226.94 v 592.17 c 0,81.62 -19,145.29 -57,191.05 -38,45.74 -89.72,68.61 -155.17,68.61 -70.38,0 -128.25,-25.33 -173.63,-76 -45.39,-50.66 -68.09,-118.93 -68.09,-204.77 v -571.06"
         style="fill:#fafafa;fill-opacity:1;fill-rule:nonzero;stroke:none"
         transform="matrix(0.13333333,0,0,-0.13333333,0,543.53333)" />
      <path
         id="path8"
         d="m 6680.18,2112.71 h 507.72 l 2.11,19 c 0,62.62 -22.35,112.58 -67.03,149.89 -44.7,37.29 -102.23,55.94 -172.58,55.94 -71.09,0 -131.6,-20.42 -181.55,-61.22 -49.98,-40.82 -79.54,-95.37 -88.67,-163.61 z m 583.72,-237.5 194.22,-76 c -36.6,-108.38 -94.66,-191.24 -174.16,-248.58 -79.54,-57.37 -179.1,-86.03 -298.73,-86.03 -159.04,0 -287.47,49.08 -385.27,147.25 -97.82,98.17 -146.72,229.22 -146.72,393.19 0,149.89 46.26,275.13 138.8,375.78 92.52,100.62 212.7,150.95 360.47,150.95 135.8,0 246.82,-41.01 333.03,-122.98 86.19,-81.99 129.3,-191.58 129.3,-328.8 0,-35.2 -3.53,-74.6 -10.55,-118.22 h -724.11 c 0,-99.23 30.24,-174.88 90.78,-226.95 63.33,-50.66 135.45,-76 216.39,-76 73.17,0 133.52,18.48 181.02,55.42 47.5,36.94 79.33,90.59 95.53,160.97"
         style="fill:#fafafa;fill-opacity:1;fill-rule:nonzero;stroke:none"
         transform="matrix(0.13333333,0,0,-0.13333333,0,543.53333)" />
      <path
         id="path9"
         d="m 7622.52,2510.65 h 226.95 v -149.88 c 20.4,54.88 51.88,97.11 94.47,126.66 42.57,29.56 94.1,44.34 154.64,44.34 84.44,0 154.79,-28.16 211.11,-84.45 56.29,-54.2 84.44,-122.44 84.44,-204.78 0,-47.86 -4.93,-91.14 -14.77,-129.83 h -224.84 c 5.62,25.34 8.45,54.18 8.45,86.56 0,40.11 -14.25,73.17 -42.75,99.22 -28.5,26.02 -64.58,39.05 -108.2,39.05 -49.26,0 -88.66,-15.49 -118.22,-46.44 -29.55,-30.98 -44.33,-72.49 -44.33,-124.56 v -680.83 h -226.95 v 1024.94"
         style="fill:#fafafa;fill-opacity:1;fill-rule:nonzero;stroke:none"
         transform="matrix(0.13333333,0,0,-0.13333333,0,543.53333)" />
      <path
         id="path10"
         d="m 8397.38,1745.38 h 259.66 v -259.67 h -259.66 v 259.67"
         style="fill:#fafafa;fill-opacity:1;fill-rule:nonzero;stroke:none"
         transform="matrix(0.13333333,0,0,-0.13333333,0,543.53333)" />
      <path
         id="path11"
         d="m 9539.22,1875.21 v 10.56 l -82.33,21.11 c -73.89,19 -130.54,28.5 -169.94,28.5 -59.12,0 -105.75,-11.45 -139.87,-34.31 -34.14,-22.88 -51.19,-56.84 -51.19,-101.86 0,-42.22 16.18,-76.18 48.56,-101.86 32.35,-25.7 79.85,-38.53 142.5,-38.53 75.28,0 136.16,19.35 182.61,58.06 46.44,38.68 69.66,91.46 69.66,158.33 z m -680.83,-98.16 c 0,107.66 35.7,189.47 107.14,245.41 71.41,55.95 166.25,83.92 284.47,83.92 62.62,0 123.13,-7.39 181.56,-22.17 l 107.66,-25.33 v 74.94 c 0,66.84 -22.16,119.28 -66.5,157.28 -44.33,38 -101.33,57 -171,57 -66.86,0 -121.91,-18.13 -165.19,-54.36 -43.28,-36.26 -71.25,-85.69 -83.92,-148.31 l -204.78,53.84 c 23.23,102.73 73.9,183.82 152.01,243.3 78.11,59.45 178.73,89.2 301.88,89.2 145.67,0 257.72,-35.55 336.2,-106.62 78.45,-71.09 117.69,-171.71 117.69,-301.88 v -637.56 h -216.39 v 173.11 C 9516,1599 9474.99,1551.69 9416.25,1516.85 c -58.77,-34.83 -132.13,-52.25 -220.08,-52.25 -89.38,0 -168.02,28.66 -235.92,86.03 -67.92,57.34 -101.86,132.82 -101.86,226.42"
         style="fill:#fafafa;fill-opacity:1;fill-rule:nonzero;stroke:none"
         transform="matrix(0.13333333,0,0,-0.13333333,0,543.53333)" />
      <path
         id="path12"
         d="m 9984.61,2510.65 h 226.99 V 1485.71 h -226.99 z m -10.55,175.23 v 248.05 h 248.04 v -248.05 h -248.04"
         style="fill:#fafafa;fill-opacity:1;fill-rule:nonzero;stroke:none"
         transform="matrix(0.13333333,0,0,-0.13333333,0,543.53333)" />
    </g>
  </g>
</svg>
